<?xml version="1.0" encoding="UTF-8"?>
<svg id="Layer_1" data-name="Layer 1" xmlns="http://www.w3.org/2000/svg" xmlns:xlink="http://www.w3.org/1999/xlink" viewBox="0 0 1275.12 2438.31">
  <defs>
    <style>
      .cls-1 {
        fill: #664e66;
      }

      .cls-1, .cls-2, .cls-3, .cls-4, .cls-5, .cls-6, .cls-7, .cls-8, .cls-9, .cls-10, .cls-11, .cls-12, .cls-13, .cls-14 {
        stroke: #000;
        stroke-miterlimit: 10;
      }

      .cls-1, .cls-2, .cls-3, .cls-4, .cls-5, .cls-6, .cls-7, .cls-8, .cls-9, .cls-11, .cls-12, .cls-13, .cls-14 {
        stroke-width: 3px;
      }

      .cls-2 {
        fill: #333;
      }

      .cls-3 {
        fill: #4b3c57;
      }

      .cls-4 {
        fill: #53425e;
      }

      .cls-5 {
        fill: url(#linear-gradient);
      }

      .cls-6 {
        fill: #513f59;
      }

      .cls-7 {
        fill: #373350;
      }

      .cls-8 {
        fill: #666281;
      }

      .cls-9 {
        fill: #795456;
      }

      .cls-10 {
        stroke-width: 4px;
      }

      .cls-10, .cls-12 {
        fill: #543d59;
      }

      .cls-11 {
        fill: #453148;
      }

      .cls-13 {
        fill: #553e5a;
      }

      .cls-14 {
        fill: #583d40;
      }
    </style>
    <linearGradient id="linear-gradient" x1="637.29" y1="1009.81" x2="637.29" y2="2436.81" gradientTransform="translate(-1086.02 2360.61) rotate(-90)" gradientUnits="userSpaceOnUse">
      <stop offset="0" stop-color="#583d40"/>
      <stop offset=".31" stop-color="#6a494c"/>
      <stop offset=".64" stop-color="#755153"/>
      <stop offset="1" stop-color="#795456"/>
    </linearGradient>
  </defs>
  <rect class="cls-11" x="461.81" y="9.81" width="346" height="556"/>
  <path class="cls-2" d="M636.81,153.81h0c96.03,0,174,77.97,174,174v253h-346v-255c0-94.93,77.07-172,172-172Z"/>
  <path class="cls-10" d="M1197.9,75.97l-.09-73.15-560.5-.5-564.91-.31-.09,73.15-.91,755.11,140.5-.26,262.5-268.74s2.51-407.07,3-416.26c5.34-100.15,160.91-112.69,160.91-112.69,0,0,149.16,13.35,154.5,113.5.49,9.19,3,416.26,3,416.26l262.5,268.74,140.5.26-.91-755.11Z"/>
  <g>
    <polygon class="cls-11" points="1196.67 633.32 1196.81 838.81 1067.67 838.32 1058.06 826.03 1058.06 602.87 1131.39 635.41 1196.67 633.32"/>
    <polygon class="cls-12" points="1197.67 633.32 1131.39 635.41 1058.06 602.87 1115.67 600.32 1197.67 624.32 1197.67 633.32"/>
    <polygon class="cls-12" points="1197.67 191.39 1142.17 230.32 1027.17 213.32 1082.95 171.31 1197.67 182.22 1197.67 191.39"/>
    <polygon class="cls-6" points="1150.06 192 1144.67 626.32 1079.67 602.38 1085.67 214.32 1150.06 192"/>
    <polygon class="cls-6" points="1197.67 192.32 1197.67 624.32 1146.67 626.32 1150.06 192 1197.67 192.32"/>
    <line class="cls-12" x1="1131.39" y1="635.41" x2="1129.39" y2="838.32"/>
    <polygon class="cls-12" points="1026.67 213.32 1082.67 171.32 1082.67 110.32 1024.67 153.32 1026.67 213.32"/>
    <polygon class="cls-12" points="1082.67 171.32 1197.67 182.32 1198.67 119.32 1082.67 110.32 1082.67 171.32"/>
  </g>
  <g>
    <path class="cls-1" d="M410.09,590.41l5.43-5.46c1.2-1.2,2.23,2.6,2.31,8.49l.03,2.34c.09,5.89-.81,11.7-2,12.99l-5.42,5.86c-1.24,1.35-2.33-2.47-2.42-8.54l-.04-2.41c-.09-6.07.85-12.02,2.1-13.27Z"/>
    <polygon class="cls-1" points="337.81 257.92 345.81 209.92 357.81 186.92 372.81 182.92 387.81 190.92 395.81 214.92 403.81 262.92 412.81 615.92 341.81 687.92 337.81 257.92"/>
    <polygon class="cls-8" points="350.31 204.8 361.81 185.42 361.81 665.47 348.81 678.92 350.31 204.8"/>
    <polygon class="cls-8" points="369.31 187.52 380.81 168.14 384.81 644.19 372.81 655.92 369.31 187.52"/>
    <polygon class="cls-8" points="388.31 190.64 397.81 172.42 402.81 623.92 391.81 635.92 388.31 190.64"/>
    <path class="cls-12" d="M409.1,523.66l5.46-4.34c1.2-.96,2.24,3.07,2.33,8.98l.66,45.1c.09,5.89-.81,11.64-2,12.85l-5.43,5.48c-1.25,1.26-2.34-2.64-2.43-8.71l-.69-46.5c-.09-6.09.86-11.85,2.11-12.85Z"/>
    <path class="cls-1" d="M408.08,454.5l5.48-3.18c1.21-.7,2.25,3.55,2.34,9.48l.67,46.08c.09,5.92-.81,11.48-2.01,12.44l-5.46,4.34c-1.25,1-2.35-3.13-2.44-9.23l-.71-47.52c-.09-6.12.86-11.68,2.12-12.41Z"/>
    <path class="cls-12" d="M406.97,383.78l5.52-1.99c1.21-.44,2.26,4.04,2.35,10l.7,47.55c.09,5.94-.82,11.32-2.02,12.02l-5.49,3.18c-1.26.73-2.36-3.64-2.45-9.76l-.73-49.04c-.09-6.14.87-11.5,2.13-11.95Z"/>
    <path class="cls-1" d="M405.99,314.17l5.54-.81c1.22-.18,2.27,4.53,2.36,10.5l.68,46.33c.09,5.96-.82,11.14-2.03,11.58l-5.51,1.99c-1.27.46-2.37-4.15-2.47-10.3l-.71-47.79c-.09-6.17.87-11.32,2.15-11.5Z"/>
    <path class="cls-12" d="M399.81,255.4l8.13-18c2.27-5.14,3.04,4.29,3.08,7.06l2.51,63.63c.04,2.75-.38,5.04-.93,5.12l-7.99,1.17c-.59.09-1.1-2.14-1.14-4.97l-3.52-44.04c-.04-2.86-1.32-4.28-.13-9.96Z"/>
    <path class="cls-1" d="M391.49,213.18l5.61-38.12c.64-3.4,1.97-5.94,3.09.03l8.79,48.51c.41,2.13.69,7.92.03,11.24l-9.21,20.56c-1.11.62-1.31-.07-1.45-1.96l-5.94-31.18c-.88-1.92-1.27-3.13-.94-9.09Z"/>
    <path class="cls-12" d="M380.08,184.1l2.18-42.47c.56-13.03,2.81-8.26,3.34-6.16l11.17,27.23c.5,1.99,1.12,7.47.55,11.87l-5.62,37.19c-1.13,6.99-1.91,1.57-2.43-.39l-7.94-18.72c-.55-2.04-1.35-.28-1.25-8.56Z"/>
    <path class="cls-1" d="M336.34,664.54l-8.52,8.56c-1.97,1.98-3.47,9.77-3.34,17.39l.05,3.02c.13,7.61,1.84,12.04,3.81,9.92l8.5-9.2c1.86-2.01,3.26-9.57,3.14-16.9l-.05-2.91c-.12-7.33-1.72-11.77-3.59-9.89Z"/>
    <path class="cls-12" d="M334.96,582.64l-8.57,6.82c-1.98,1.57-3.49,9.07-3.36,16.72l1.01,58.37c.13,7.62,1.85,12.18,3.81,10.19l8.52-8.6c1.87-1.88,3.27-9.34,3.14-16.68l-.95-56.18c-.12-7.36-1.73-12.14-3.61-10.64Z"/>
    <path class="cls-1" d="M333.52,497.73l-8.62,5c-1.99,1.15-3.51,8.33-3.38,16.02l1.03,59.7c.13,7.66,1.86,12.58,3.84,11.01l8.57-6.82c1.88-1.49,3.29-8.67,3.16-16.04l-.97-57.45c-.12-7.4-1.74-12.52-3.63-11.42Z"/>
    <path class="cls-12" d="M332.13,410.75l-8.67,3.13c-2,.72-3.53,7.58-3.4,15.31l1.07,61.65c.13,7.7,1.87,12.99,3.86,11.84l8.62-5c1.89-1.09,3.3-7.98,3.18-15.38l-1-59.32c-.13-7.43-1.75-12.91-3.65-12.23Z"/>
    <path class="cls-1" d="M330.59,325.17l-8.73,1.27c-2.02.29-3.56,6.83-3.42,14.6l1.04,60.17c.13,7.74,1.88,13.42,3.88,12.7l8.68-3.13c1.9-.68,3.33-7.27,3.2-14.71l-.98-57.87c-.13-7.47-1.76-13.3-3.68-13.03Z"/>
    <path class="cls-12" d="M337.14,253.3l-12.96-23.43c-3.91-7.19-4.73,4.74-4.66,8.3l-1.21,82.33c.06,3.56.87,6.34,1.8,6.21l12.56-1.83c.87-.13,1.53-3.01,1.47-6.44l3.23-53.3c-.06-3.4,1.68-5.03-.23-11.83Z"/>
    <path class="cls-1" d="M346.7,206.17l-9.03-47.33c-1.03-4.5-3.04-8.56-4.41-2.18l-11.37,55.37c-.57,2.57-.75,9.87.46,14.31l14.8,26.96c1.58.83,1.83.03,1.95-2.18l6.74-34.92c1.06-1.91,1.52-3.15.86-10.03Z"/>
    <path class="cls-12" d="M359.39,179.25l-4-47.22c-1.12-14.71-3.65-11.45-4.22-9.59l-13.54,21.95c-.62,1.97-1.27,8.05-.28,13.71l9.03,46.37c1.71,8.34,2.5,2.5,3.08.5l8.82-17.18c.55-1.93,1.52.32,1.12-8.55Z"/>
    <path class="cls-1" d="M380.14,182.98l1.95-37.32c.88-12.09,1.57-15.24-1.04-19.28,0,0-4.39-8-11.67-11.04-7.48-3.12-12.48,1.79-12.48,1.79-.77-.31-2.08,2.81-2.06,8.43l4.55,53.68c.79,8.48.88,5.12,6.08,3.99l9.82.94c5.49,6.32,4.41,6.58,4.86-1.2Z"/>
  </g>
  <g>
    <polygon class="cls-1" points="933.81 260.81 925.81 212.81 913.81 189.81 898.81 185.81 883.81 193.81 875.81 217.81 867.81 265.81 858.81 618.81 929.81 690.81 933.81 260.81"/>
    <polygon class="cls-8" points="921.31 207.7 909.81 188.31 909.81 668.37 922.81 681.81 921.31 207.7"/>
    <polygon class="cls-8" points="902.31 190.42 890.81 171.03 886.81 647.09 898.81 658.81 902.31 190.42"/>
    <polygon class="cls-8" points="883.31 193.54 873.81 175.31 868.81 626.81 879.81 638.81 883.31 193.54"/>
    <path class="cls-1" d="M859.44,594.86l-5.43-5.46c-1.2-1.2-2.23,2.6-2.31,8.49l-.03,2.34c-.09,5.89.81,11.7,2,12.99l5.42,5.86c1.24,1.35,2.33-2.47,2.42-8.54l.04-2.41c.09-6.07-.85-12.02-2.1-13.27Z"/>
    <path class="cls-12" d="M860.43,528.1l-5.46-4.34c-1.2-.96-2.24,3.07-2.33,8.98l-.66,45.1c-.09,5.89.81,11.64,2,12.85l5.43,5.48c1.25,1.26,2.34-2.64,2.43-8.71l.69-46.5c.09-6.09-.86-11.85-2.11-12.85Z"/>
    <path class="cls-1" d="M861.45,458.95l-5.48-3.18c-1.21-.7-2.25,3.55-2.34,9.48l-.67,46.08c-.09,5.92.81,11.48,2.01,12.44l5.46,4.34c1.25,1,2.35-3.13,2.44-9.23l.71-47.52c.09-6.12-.86-11.68-2.12-12.41Z"/>
    <path class="cls-12" d="M862.56,388.23l-5.52-1.99c-1.21-.44-2.26,4.04-2.35,10l-.7,47.55c-.09,5.94.82,11.32,2.02,12.02l5.49,3.18c1.26.73,2.36-3.64,2.45-9.76l.73-49.04c.09-6.14-.87-11.5-2.13-11.95Z"/>
    <path class="cls-1" d="M863.53,318.62l-5.54-.81c-1.22-.18-2.27,4.53-2.36,10.5l-.68,46.33c-.09,5.96.82,11.14,2.03,11.58l5.51,1.99c1.27.46,2.37-4.15,2.47-10.3l.71-47.79c.09-6.17-.87-11.32-2.15-11.5Z"/>
    <path class="cls-12" d="M869.72,259.85l-8.13-18c-2.27-5.14-3.04,4.29-3.08,7.06l-2.51,63.63c-.04,2.75.38,5.04.93,5.12l7.99,1.17c.59.09,1.1-2.14,1.14-4.97l3.52-44.04c.04-2.86,1.32-4.28.13-9.96Z"/>
    <path class="cls-1" d="M878.04,217.63l-5.61-38.12c-.64-3.4-1.97-5.94-3.09.03l-8.79,48.51c-.41,2.13-.69,7.92-.03,11.24l9.21,20.56c1.11.62,1.31-.07,1.45-1.96l5.94-31.18c.88-1.92,1.27-3.13.94-9.09Z"/>
    <path class="cls-12" d="M889.44,188.54l-2.18-42.47c-.56-13.03-2.81-8.26-3.34-6.16l-11.17,27.23c-.5,1.99-1.12,7.47-.55,11.87l5.62,37.19c1.13,6.99,1.91,1.57,2.43-.39l7.94-18.72c.55-2.04,1.35-.28,1.25-8.56Z"/>
    <path class="cls-1" d="M933.18,668.99l8.52,8.56c1.97,1.98,3.47,9.77,3.34,17.39l-.05,3.02c-.13,7.61-1.84,12.04-3.81,9.92l-8.5-9.2c-1.86-2.01-3.26-9.57-3.14-16.9l.05-2.91c.12-7.33,1.72-11.77,3.59-9.89Z"/>
    <path class="cls-12" d="M934.57,587.09l8.57,6.82c1.98,1.57,3.49,9.07,3.36,16.72l-1.01,58.37c-.13,7.62-1.85,12.18-3.81,10.19l-8.52-8.6c-1.87-1.88-3.27-9.34-3.14-16.68l.95-56.18c.12-7.36,1.73-12.14,3.61-10.64Z"/>
    <path class="cls-1" d="M936.01,502.17l8.62,5c1.99,1.15,3.51,8.33,3.38,16.02l-1.03,59.7c-.13,7.66-1.86,12.58-3.84,11.01l-8.57-6.82c-1.88-1.49-3.29-8.67-3.16-16.04l.97-57.45c.12-7.4,1.74-12.52,3.63-11.42Z"/>
    <path class="cls-12" d="M937.4,415.2l8.67,3.13c2,.72,3.53,7.58,3.4,15.31l-1.07,61.65c-.13,7.7-1.87,12.99-3.86,11.84l-8.62-5c-1.89-1.09-3.3-7.98-3.18-15.38l1-59.32c.13-7.43,1.75-12.91,3.65-12.23Z"/>
    <path class="cls-1" d="M938.94,329.62l8.73,1.27c2.02.29,3.56,6.83,3.42,14.6l-1.04,60.17c-.13,7.74-1.88,13.42-3.88,12.7l-8.68-3.13c-1.9-.68-3.33-7.27-3.2-14.71l.98-57.87c.13-7.47,1.76-13.3,3.68-13.03Z"/>
    <path class="cls-12" d="M932.38,257.75l12.96-23.43c3.91-7.19,4.73,4.74,4.66,8.3l1.21,82.33c-.06,3.56-.87,6.34-1.8,6.21l-12.56-1.83c-.87-.13-1.53-3.01-1.47-6.44l-3.23-53.3c.06-3.4-1.68-5.03.23-11.83Z"/>
    <path class="cls-1" d="M922.83,210.61l9.03-47.33c1.03-4.5,3.04-8.56,4.41-2.18l11.37,55.37c.57,2.57.75,9.87-.46,14.31l-14.8,26.96c-1.58.83-1.83.03-1.95-2.18l-6.74-34.92c-1.06-1.91-1.52-3.15-.86-10.03Z"/>
    <path class="cls-12" d="M910.14,183.7l4-47.22c1.12-14.71,3.65-11.45,4.22-9.59l13.54,21.95c.62,1.97,1.27,8.05.28,13.71l-9.03,46.37c-1.71,8.34-2.5,2.5-3.08.5l-8.82-17.18c-.55-1.93-1.52.32-1.12-8.55Z"/>
    <path class="cls-1" d="M889.39,187.43l-1.95-37.32c-.88-12.09-1.57-15.24,1.04-19.28,0,0,4.39-8,11.67-11.04,7.48-3.12,12.48,1.79,12.48,1.79.77-.31,2.08,2.81,2.06,8.43l-4.55,53.68c-.79,8.48-.88,5.12-6.08,3.99l-9.82.94c-5.49,6.32-4.41,6.58-4.86-1.2Z"/>
  </g>
  <g>
    <polygon class="cls-11" points="73.81 625.81 73.81 830.81 200.81 830.81 214.43 818.52 214.43 595.37 141.1 627.9 73.81 625.81"/>
    <polygon class="cls-12" points="74.81 625.81 141.1 627.9 214.43 595.37 156.81 592.81 74.81 616.81 74.81 625.81"/>
    <polygon class="cls-12" points="74.81 183.88 130.31 222.81 245.31 205.81 189.54 163.8 74.81 174.72 74.81 183.88"/>
    <polygon class="cls-6" points="122.43 184.5 127.81 618.81 192.81 594.87 186.81 206.81 122.43 184.5"/>
    <polygon class="cls-6" points="74.81 184.81 74.81 616.81 125.81 618.81 122.43 184.5 74.81 184.81"/>
    <line class="cls-12" x1="141.1" y1="627.9" x2="139.1" y2="830.81"/>
    <polygon class="cls-12" points="245.81 205.81 189.81 163.81 189.81 102.81 247.81 145.81 245.81 205.81"/>
    <polygon class="cls-12" points="189.81 163.81 74.81 174.81 73.81 111.81 189.81 102.81 189.81 163.81"/>
  </g>
  <rect class="cls-13" x="534.81" y="345.31" width="192" height="1163" rx="13.27" ry="13.27" transform="translate(1557.63 296) rotate(90)"/>
  <rect class="cls-5" x="-76.21" y="1159.79" width="1427" height="1127.04" rx="13.27" ry="13.27" transform="translate(2360.61 1086.02) rotate(90)"/>
  <rect class="cls-9" x="576.49" y="970.42" width="128.88" height="179.92" rx="13.27" ry="13.27" transform="translate(1701.31 419.45) rotate(90)"/>
  <rect class="cls-14" x="395.48" y="969.33" width="128.88" height="182.1" rx="13.27" ry="13.27" transform="translate(1520.3 600.47) rotate(90)"/>
  <rect class="cls-9" x="211.65" y="968.32" width="128.88" height="185.55" rx="13.27" ry="13.27" transform="translate(1337.19 785) rotate(90)"/>
  <rect class="cls-14" x="27.97" y="969.47" width="128.88" height="181.82" rx="13.27" ry="13.27" transform="translate(1152.79 967.97) rotate(90)"/>
  <rect class="cls-9" x="938.75" y="970.57" width="128.88" height="179.92" rx="13.27" ry="13.27" transform="translate(2063.72 57.34) rotate(90)"/>
  <rect class="cls-14" x="757.74" y="969.48" width="128.88" height="182.1" rx="13.27" ry="13.27" transform="translate(1882.71 238.35) rotate(90)"/>
  <rect class="cls-14" x="1118.27" y="969.41" width="128.88" height="181.82" rx="13.27" ry="13.27" transform="translate(2243.03 -122.39) rotate(90)"/>
  <g>
    <rect class="cls-14" x="754.12" y="536.05" width="43.07" height="21.45" rx="9.94" ry="9.94" transform="translate(1551.31 1093.56) rotate(-180)"/>
    <rect class="cls-9" x="754.12" y="477.08" width="43.07" height="60.13" rx="13.27" ry="13.27" transform="translate(1551.31 1014.29) rotate(-180)"/>
    <rect class="cls-14" x="754.12" y="416.22" width="43.07" height="60.86" rx="13.27" ry="13.27" transform="translate(1551.31 893.3) rotate(-180)"/>
    <rect class="cls-9" x="753.88" y="354.21" width="43.07" height="62.01" rx="13.27" ry="13.27" transform="translate(1550.83 770.43) rotate(-180)"/>
    <rect class="cls-14" x="754.12" y="293.44" width="43.07" height="60.76" rx="13.27" ry="13.27" transform="translate(1551.31 647.65) rotate(-180)"/>
    <path class="cls-9" d="M741.86,242.47l35.01-16.03c10.12-4.72,12.83,3.56,12.83,6.01l6.9,56.56c0,2.45-1.99,4.43-4.43,4.43h-34.2c-2.45,0-4.43-1.99-4.43-4.43l-11.75-38.03c0-2.45-5.09-3.64.09-8.51Z"/>
    <path class="cls-14" d="M711.36,207.46l24.43-33.15c2.77-3.04,8.34-5.55,12.54-.7l33.9,40.61c1.63,1.83,2.46,6.9-.57,9.89l-39.79,18.36c-4.54.56-5.3-.03-5.74-1.62l-21.66-25.9c-3.31-1.51-4.75-2.48-3.1-7.49Z"/>
    <path class="cls-9" d="M670.22,185.38l10.4-35.02c2.81-10.81,10.92-7.61,12.81-6.05l41.79,19.57c1.89,1.56,4.06,6.08,1.48,9.96l-24.44,32.4c-4.79,5.98-7.47,1.56-9.36,0l-28.62-14.16c-1.89-1.56-4.91,0-4.06-6.71Z"/>
    <rect class="cls-14" x="472.44" y="536.05" width="43.07" height="21.45" rx="9.94" ry="9.94"/>
    <rect class="cls-9" x="472.44" y="477.08" width="43.07" height="60.13" rx="13.27" ry="13.27"/>
    <rect class="cls-14" x="472.44" y="416.22" width="43.07" height="60.86" rx="13.27" ry="13.27"/>
    <rect class="cls-9" x="472.68" y="354.21" width="43.07" height="62.01" rx="13.27" ry="13.27"/>
    <rect class="cls-14" x="472.44" y="293.44" width="43.07" height="60.76" rx="13.27" ry="13.27"/>
    <path class="cls-9" d="M527.77,242.47l-35.01-16.03c-10.12-4.72-12.83,3.56-12.83,6.01l-6.9,56.56c0,2.45,1.99,4.43,4.43,4.43h34.2c2.45,0,4.43-1.99,4.43-4.43l11.75-38.03c0-2.45,5.09-3.64-.09-8.51Z"/>
    <path class="cls-14" d="M558.27,207.46l-24.43-33.15c-2.77-3.04-8.34-5.55-12.54-.7l-33.9,40.61c-1.63,1.83-2.46,6.9.57,9.89l39.79,18.36c4.54.56,5.3-.03,5.74-1.62l21.66-25.9c3.31-1.51,4.75-2.48,3.1-7.49Z"/>
    <path class="cls-9" d="M599.41,185.38l-10.4-35.02c-2.81-10.81-10.92-7.61-12.81-6.05l-41.79,19.57c-1.89,1.56-4.06,6.08-1.48,9.96l24.44,32.4c4.79,5.98,7.47,1.56,9.36,0l28.62-14.16c1.89-1.56,4.91,0,4.06-6.71Z"/>
    <path class="cls-14" d="M670.49,184.47l9.24-30.76c3.96-10.12,6.68-12.92-2.73-15.37,0,0-15.46-5.02-40.85-5.02s-41.56,5.31-41.56,5.31c-2.45,0-6.79,2.75-7.01,7l11.82,39.75c2.12,6.35,2.6,3.76,19.84,1.99l33.75-1.03c19.37,4.1,15.44,4.49,17.49-1.88Z"/>
  </g>
  <polygon class="cls-7" points="763.15 753.81 634.81 753.81 634.81 732.81 755.81 732.81 763.15 753.81"/>
  <polygon class="cls-13" points="713.81 778.81 563.81 778.81 566.81 754.81 709.81 754.81 713.81 778.81"/>
  <polygon class="cls-3" points="856.81 779.81 716.15 778.75 711.81 753.81 842.81 755.81 856.81 779.81"/>
  <polygon class="cls-7" points="1005.81 779.81 858.29 779.75 844.81 755.81 983.81 754.81 1005.81 779.81"/>
  <polygon class="cls-4" points="561.81 778.81 428.81 778.81 444.81 753.81 563.81 754.81 561.81 778.81"/>
  <polygon class="cls-7" points="428.81 778.81 260.81 779.81 285.81 754.81 444.81 753.81 428.81 778.81"/>
  <polygon class="cls-13" points="633.81 753.81 490.81 753.81 500.81 732.81 633.81 732.81 633.81 753.81"/>
  <polygon class="cls-3" points="489.81 753.81 348.81 753.81 368.81 732.81 500.81 732.81 489.81 753.81"/>
  <polygon class="cls-13" points="347.83 753.81 285.81 754.81 304.81 732.81 368.81 732.81 347.83 753.81"/>
  <polygon class="cls-13" points="905.81 754.81 762.81 754.81 755.81 733.81 889.81 733.81 905.81 754.81"/>
  <polygon class="cls-13" points="983.81 756.81 906.85 755.81 889.81 734.81 962.81 733.81 983.81 756.81"/>
  <polygon class="cls-4" points="748.45 710.89 634.81 710.89 634.81 692.29 741.95 692.29 748.45 710.89"/>
  <polygon class="cls-3" points="704.76 733.02 571.95 733.02 574.6 711.77 701.22 711.77 704.76 733.02"/>
  <polygon class="cls-13" points="831.38 733.91 706.83 732.96 702.99 710.89 818.99 712.66 831.38 733.91"/>
  <polygon class="cls-7" points="963.31 733.91 832.69 733.85 820.76 712.66 943.83 711.77 963.31 733.91"/>
  <polygon class="cls-7" points="570.17 733.02 452.41 733.02 466.58 710.89 571.95 711.77 570.17 733.02"/>
  <polygon class="cls-13" points="452.41 733.02 303.65 733.91 325.79 711.77 466.58 710.89 452.41 733.02"/>
  <polygon class="cls-13" points="633.93 710.89 507.31 710.89 516.16 692.29 633.93 692.29 633.93 710.89"/>
  <polygon class="cls-13" points="506.42 710.89 381.57 710.89 399.28 692.29 516.16 692.29 506.42 710.89"/>
  <polygon class="cls-7" points="380.7 710.89 325.79 711.77 345.81 692.81 399.28 692.29 380.7 710.89"/>
  <polygon class="cls-7" points="874.77 710.89 748.15 710.89 741.95 692.29 860.6 692.29 874.77 710.89"/>
  <polygon class="cls-3" points="943.83 711.77 875.69 710.89 860.6 692.29 925.81 693.81 943.83 711.77"/>
  <polygon class="cls-7" points="534.3 673.79 632.67 673.79 632.67 658.83 539.93 658.83 534.3 673.79"/>
  <polygon class="cls-13" points="572.12 691.6 687.08 691.6 684.78 674.5 575.18 674.5 572.12 691.6"/>
  <polygon class="cls-3" points="462.51 692.31 570.33 691.55 573.65 673.79 473.24 675.22 462.51 692.31"/>
  <polygon class="cls-7" points="348.31 692.31 461.38 692.27 471.71 675.22 365.18 674.5 348.31 692.31"/>
  <polygon class="cls-4" points="688.62 691.6 790.55 691.6 778.29 673.79 687.08 674.5 688.62 691.6"/>
  <polygon class="cls-7" points="790.55 691.6 923.31 692.31 904.15 674.5 778.29 673.79 790.55 691.6"/>
  <polygon class="cls-13" points="633.43 673.79 743.03 673.79 735.37 658.83 633.43 658.83 633.43 673.79"/>
  <polygon class="cls-3" points="743.8 673.79 851.87 673.79 836.54 658.83 735.37 658.83 743.8 673.79"/>
  <polygon class="cls-13" points="852.62 673.79 904.15 674.5 889.59 658.83 836.54 658.83 852.62 673.79"/>
  <polygon class="cls-13" points="424.96 673.79 534.56 673.79 539.93 658.83 437.22 658.83 424.96 673.79"/>
  <polygon class="cls-13" points="365.18 675.93 424.17 675.22 437.22 660.26 381.27 659.54 365.18 675.93"/>
  <polygon class="cls-4" points="545.57 643.21 632.67 643.21 632.67 629.96 550.55 629.96 545.57 643.21"/>
  <polygon class="cls-3" points="579.05 658.98 680.85 658.98 678.81 643.84 581.77 643.84 579.05 658.98"/>
  <polygon class="cls-13" points="482.01 659.61 577.47 658.94 580.41 643.21 491.51 644.47 482.01 659.61"/>
  <polygon class="cls-7" points="380.89 659.61 481 659.57 490.15 644.47 395.82 643.84 380.89 659.61"/>
  <polygon class="cls-7" points="682.21 658.98 772.47 658.98 761.61 643.21 680.85 643.84 682.21 658.98"/>
  <polygon class="cls-13" points="772.47 658.98 889.48 659.61 872.51 643.84 761.61 643.21 772.47 658.98"/>
  <polygon class="cls-13" points="633.35 643.21 730.39 643.21 723.61 629.96 633.35 629.96 633.35 643.21"/>
  <polygon class="cls-13" points="731.07 643.21 826.76 643.21 813.19 629.96 723.61 629.96 731.07 643.21"/>
  <polygon class="cls-7" points="829.43 643.21 873.81 643.81 860.81 629.81 815.19 629.96 829.43 643.21"/>
  <polygon class="cls-7" points="448.75 643.21 545.8 643.21 550.55 629.96 459.61 629.96 448.75 643.21"/>
  <polygon class="cls-3" points="395.82 643.84 448.05 643.21 459.61 629.96 409.63 631.05 395.82 643.84"/>
  <polygon class="cls-7" points="489.01 802.23 634.45 802.23 634.45 779.31 497.32 779.31 489.01 802.23"/>
  <polygon class="cls-13" points="544.92 829.51 714.92 829.51 711.52 803.32 549.45 803.32 544.92 829.51"/>
  <polygon class="cls-3" points="382.85 830.6 542.27 829.44 547.18 802.23 398.72 804.41 382.85 830.6"/>
  <polygon class="cls-7" points="213.98 830.6 381.17 830.53 396.45 804.41 238.92 803.32 213.98 830.6"/>
  <polygon class="cls-4" points="717.18 829.51 867.92 829.51 849.78 802.23 714.92 803.32 717.18 829.51"/>
  <polygon class="cls-7" points="867.92 829.51 1058.31 830.6 1029.98 803.32 849.78 802.23 867.92 829.51"/>
  <polygon class="cls-13" points="635.58 802.23 797.65 802.23 786.32 779.31 635.58 779.31 635.58 802.23"/>
  <polygon class="cls-3" points="798.78 802.23 958.58 802.23 935.92 779.31 786.32 779.31 798.78 802.23"/>
  <polygon class="cls-13" points="959.69 802.23 1029.98 803.32 1008.45 779.31 935.92 779.31 959.69 802.23"/>
  <polygon class="cls-13" points="327.32 802.23 489.38 802.23 497.32 779.31 345.45 779.31 327.32 802.23"/>
  <polygon class="cls-13" points="238.92 805.5 326.15 804.41 345.45 781.5 262.72 780.41 238.92 805.5"/>
  <polygon class="cls-4" points="553.05 620.69 634.05 620.69 634.05 607.53 557.68 607.53 553.05 620.69"/>
  <polygon class="cls-13" points="634.68 620.69 724.93 620.69 718.62 607.53 634.68 607.53 634.68 620.69"/>
  <polygon class="cls-13" points="725.56 620.69 814.55 620.69 801.93 607.53 718.62 607.53 725.56 620.69"/>
  <polygon class="cls-7" points="815.17 620.69 854.31 621.31 840.04 607.9 801.93 607.53 815.17 620.69"/>
  <polygon class="cls-7" points="465.95 620.69 556.2 620.69 560.62 607.53 476.04 607.53 465.95 620.69"/>
  <polygon class="cls-3" points="416.72 621.81 465.29 621.19 476.04 608.03 429.56 609.11 416.72 621.81"/>
  <polygon class="cls-7" points="705.69 593.44 635.58 593.44 635.58 582.85 701.68 582.85 705.69 593.44"/>
  <polygon class="cls-13" points="678.74 606.04 596.79 606.04 598.43 593.94 676.55 593.94 678.74 606.04"/>
  <polygon class="cls-3" points="756.86 606.54 680.01 606 677.64 593.44 749.21 594.44 756.86 606.54"/>
  <polygon class="cls-7" points="838.26 606.54 757.67 606.51 750.3 594.44 826.24 593.94 838.26 606.54"/>
  <polygon class="cls-4" points="596.68 607.04 524.02 607.04 532.76 594.44 597.77 594.94 596.68 607.04"/>
  <polygon class="cls-7" points="524.02 607.04 429.38 607.54 443.04 594.94 532.76 594.44 524.02 607.04"/>
  <polygon class="cls-13" points="635.03 593.44 556.91 593.44 562.37 582.85 635.03 582.85 635.03 593.44"/>
  <polygon class="cls-3" points="556.36 593.44 479.33 593.44 490.26 582.85 562.37 582.85 556.36 593.44"/>
  <polygon class="cls-13" points="478.79 593.44 442.06 593.94 452.44 582.85 490.26 582.85 478.79 593.44"/>
  <polygon class="cls-13" points="783.63 593.44 705.5 593.44 701.68 582.85 774.89 582.85 783.63 593.44"/>
  <polygon class="cls-13" points="826.24 594.95 784.19 594.44 774.89 583.86 814.77 583.35 826.24 594.95"/>
  <polygon class="cls-4" points="697.65 571.79 635.58 571.79 635.58 562.42 694.11 562.42 697.65 571.79"/>
  <polygon class="cls-3" points="673.79 582.95 601.23 582.95 602.68 572.24 671.86 572.24 673.79 582.95"/>
  <polygon class="cls-13" points="742.96 583.4 674.92 582.92 672.82 571.79 736.19 572.69 742.96 583.4"/>
  <polygon class="cls-7" points="815.04 583.4 743.68 583.37 737.16 572.69 804.4 572.24 815.04 583.4"/>
  <polygon class="cls-7" points="600.26 582.95 535.93 582.95 543.67 571.79 601.23 572.24 600.26 582.95"/>
  <polygon class="cls-13" points="535.93 582.95 452.52 583.4 464.61 572.24 543.67 571.79 535.93 582.95"/>
  <polygon class="cls-13" points="635.09 571.79 565.92 571.79 570.76 562.42 635.09 562.42 635.09 571.79"/>
  <polygon class="cls-13" points="565.43 571.79 497.23 571.79 506.9 562.42 570.76 562.42 565.43 571.79"/>
  <polygon class="cls-7" points="495.33 571.79 463.69 572.22 472.95 562.31 505.48 562.42 495.33 571.79"/>
  <polygon class="cls-7" points="766.67 571.79 697.49 571.79 694.11 562.42 758.93 562.42 766.67 571.79"/>
  <polygon class="cls-3" points="804.4 572.24 767.17 571.79 758.93 562.42 794.55 563.19 804.4 572.24"/>
  <polygon class="cls-3" points="586.48 629.58 675.95 629.58 674.16 622.6 588.87 622.6 586.48 629.58"/>
  <polygon class="cls-13" points="501.19 629.87 585.09 629.56 587.67 622.31 509.54 622.9 501.19 629.87"/>
  <polygon class="cls-7" points="412.31 629.87 500.31 629.85 508.34 622.9 416.81 621.81 412.31 629.87"/>
  <polygon class="cls-7" points="677.14 629.58 756.47 629.58 746.93 622.31 675.95 622.6 677.14 629.58"/>
  <polygon class="cls-13" points="756.47 629.58 859.31 629.87 854.81 621.81 746.93 622.31 756.47 629.58"/>
</svg>