<?xml version="1.0" encoding="UTF-8"?>
<svg id="Layer_2" data-name="Layer 2" xmlns="http://www.w3.org/2000/svg" viewBox="0 0 1010.95 1322.08">
  <defs>
    <style>
      .cls-1 {
        fill: #3f3235;
      }

      .cls-2 {
        fill: #606060;
      }

      .cls-2, .cls-3, .cls-4, .cls-5, .cls-6, .cls-7 {
        stroke: #000;
        stroke-miterlimit: 10;
      }

      .cls-2, .cls-3, .cls-4, .cls-5, .cls-7 {
        stroke-width: 3px;
      }

      .cls-8 {
        fill: #4c3e33;
      }

      .cls-9 {
        fill: #7f432c;
      }

      .cls-4 {
        fill: #795456;
      }

      .cls-5 {
        fill: #965330;
      }

      .cls-6 {
        stroke-width: 7px;
      }

      .cls-6, .cls-7 {
        fill: #583d40;
      }
    </style>
  </defs>
  <path class="cls-2" d="M523.6,122.23h0c254.98,0,462,207.02,462,462v736.35H61.6v-736.35c0-254.98,207.02-462,462-462Z"/>
  <g>
    <path class="cls-8" d="M523.6,204.39h0c197.27,0,357.42,160.16,357.42,357.42v758.76h-357.43V204.39h0Z"/>
    <path class="cls-8" d="M166.18,204.39h357.43v758.76c0,197.27-160.16,357.42-357.42,357.42h0V204.39h0Z" transform="translate(689.78 1524.97) rotate(-180)"/>
  </g>
  <g>
    <path class="cls-1" d="M523.6,231.31h0c189.12,0,342.66,153.54,342.66,342.66v727.42h-342.66V231.31h0Z"/>
    <path class="cls-1" d="M180.94,231.31h342.66v727.42c0,189.12-153.54,342.66-342.66,342.66h0V231.31h0Z" transform="translate(704.54 1532.69) rotate(-180)"/>
  </g>
  <g>
    <rect class="cls-7" x="880.57" y="1256.39" width="128.88" height="64.19" rx="13.27" ry="13.27" transform="translate(1890.03 2576.97) rotate(-180)"/>
    <rect class="cls-4" x="880.57" y="1079.94" width="128.88" height="179.92" rx="13.27" ry="13.27" transform="translate(1890.03 2339.79) rotate(-180)"/>
    <rect class="cls-7" x="880.57" y="897.84" width="128.88" height="182.1" rx="13.27" ry="13.27" transform="translate(1890.03 1977.77) rotate(-180)"/>
    <rect class="cls-4" x="879.86" y="712.29" width="128.88" height="185.55" rx="13.27" ry="13.27" transform="translate(1888.6 1610.12) rotate(-180)"/>
    <rect class="cls-7" x="880.57" y="530.47" width="128.88" height="181.82" rx="13.27" ry="13.27" transform="translate(1890.03 1242.76) rotate(-180)"/>
    <path class="cls-4" d="M843.91,377.95l104.74-47.95c30.27-14.13,38.38,10.65,38.38,17.98l20.64,169.23c0,7.33-5.94,13.27-13.27,13.27h-102.34c-7.33,0-13.27-5.94-13.27-13.27l-35.15-113.78c0-7.33-15.24-10.89.26-25.47Z"/>
    <path class="cls-7" d="M752.65,273.18l73.1-99.18c8.29-9.1,24.95-16.59,37.51-2.1l101.42,121.52c4.87,5.48,7.35,20.65-1.71,29.59l-119.06,54.95c-13.57,1.67-15.85-.08-17.16-4.86l-64.81-77.51c-9.9-4.52-14.2-7.41-9.28-22.41Z"/>
    <path class="cls-4" d="M629.54,207.12l31.11-104.78c8.42-32.33,32.68-22.78,38.32-18.1l125.03,58.55c5.64,4.67,12.16,18.19,4.43,29.81l-73.13,96.96c-14.33,17.89-22.35,4.67-28,0l-85.63-42.37c-5.64-4.67-14.7,0-12.14-20.08Z"/>
    <rect class="cls-7" x="37.75" y="1256.39" width="128.88" height="64.19" rx="13.27" ry="13.27"/>
    <rect class="cls-4" x="37.75" y="1079.94" width="128.88" height="179.92" rx="13.27" ry="13.27"/>
    <rect class="cls-7" x="37.75" y="897.84" width="128.88" height="182.1" rx="13.27" ry="13.27"/>
    <rect class="cls-4" x="38.46" y="712.29" width="128.88" height="185.55" rx="13.27" ry="13.27"/>
    <rect class="cls-7" x="37.75" y="530.47" width="128.88" height="181.82" rx="13.27" ry="13.27"/>
    <path class="cls-4" d="M203.29,377.95l-104.74-47.95c-30.27-14.13-38.38,10.65-38.38,17.98l-20.64,169.23c0,7.33,5.94,13.27,13.27,13.27h102.34c7.33,0,13.27-5.94,13.27-13.27l35.15-113.78c0-7.33,15.24-10.89-.26-25.47Z"/>
    <path class="cls-7" d="M294.55,273.18l-73.1-99.18c-8.29-9.1-24.95-16.59-37.51-2.1l-101.42,121.52c-4.87,5.48-7.35,20.65,1.71,29.59l119.06,54.95c13.57,1.67,15.85-.08,17.16-4.86l64.81-77.51c9.9-4.52,14.2-7.41,9.28-22.41Z"/>
    <path class="cls-4" d="M417.66,207.12l-31.11-104.78c-8.42-32.33-32.68-22.78-38.32-18.1l-125.03,58.55c-5.64,4.67-12.16,18.19-4.43,29.81l73.13,96.96c14.33,17.89,22.35,4.67,28,0l85.63-42.37c5.64-4.67,14.7,0,12.14-20.08Z"/>
    <path class="cls-7" d="M630.35,204.39l27.65-92.05c11.84-30.29,20-38.67-8.17-46,0,0-46.27-15.01-122.22-15.01s-124.34,15.9-124.34,15.9c-7.33,0-20.32,8.23-20.97,20.94l35.37,118.95c6.34,19,7.77,11.26,59.37,5.96l100.99-3.07c57.96,12.25,46.21,13.44,52.34-5.62Z"/>
  </g>
  <g>
    <path class="cls-3" d="M523.6,278.66h0c168.99,0,306.19,137.2,306.19,306.19v680.86h-306.19V278.66h0Z"/>
    <path class="cls-3" d="M217.41,278.66h306.19v680.86c0,168.99-137.2,306.19-306.19,306.19h0V278.66h0Z" transform="translate(741.01 1544.37) rotate(-180)"/>
  </g>
  <g>
    <path class="cls-5" d="M523.96,272.51h0c171.46,0,310.66,139.2,310.66,310.66v695.03h-310.66V272.51h0Z"/>
    <path class="cls-9" d="M668.92,1276.74h-92.77V278.21s46.39,7.31,88.4,29.58l4.37,968.94Z"/>
    <path class="cls-9" d="M823.77,1275.71h-92.77l3.44-918.98s64.11,56.33,88.56,147.56l.77,771.42Z"/>
    <circle class="cls-6" cx="576.15" cy="827.72" r="32.8"/>
  </g>
  <g>
    <path class="cls-5" d="M215.18,272.51h310.66v695.03c0,171.46-139.2,310.66-310.66,310.66h0V272.51h0Z" transform="translate(741.01 1550.72) rotate(-180)"/>
    <path class="cls-9" d="M380.88,1276.74h92.77s0-998.53,0-998.53c0,0-46.39,7.31-88.4,29.58l-4.37,968.94Z"/>
    <path class="cls-9" d="M226.03,1275.71h92.77s-3.44-918.98-3.44-918.98c0,0-64.11,56.33-88.56,147.56l-.77,771.42Z"/>
    <circle class="cls-6" cx="473.65" cy="827.72" r="32.8"/>
  </g>
</svg>